<svg height="512" viewBox="0 0 512 512" width="512" xmlns="http://www.w3.org/2000/svg"><g id="Filled_outline" data-name="Filled outline"><path d="m384 456-64 32-88-144v144h-168a40 40 0 0 1 -40-40v-160a48 48 0 0 1 48-48h140.67a64 64 0 0 1 54.16 29.9z" fill="#34507b"/><path d="m72 88v152h112a24 24 0 0 0 24-24v-48h32l-32-80z" fill="#fec9a3"/><path d="m176 144a16 16 0 1 1 16-16 16.019 16.019 0 0 1 -16 16z" fill="#7a432a"/><path d="m208 88h-80l-8 24h-7.731a20.838 20.838 0 0 0 -20.215 15.784 20.836 20.836 0 0 0 10.9 23.691l1.046.525-32 32v-96a40 40 0 0 1 40-40h56a40 40 0 0 1 40 40z" fill="#7a432a"/><path d="m232 44.12a20.251 20.251 0 0 1 -.38 3.88 19.8 19.8 0 0 1 -1.06 3.6l-14.56 36.4h-144l-14.56-36.4a20.116 20.116 0 0 1 18.68-27.6h135.76a20.123 20.123 0 0 1 20.12 20.12z" fill="#34507b"/><path d="m128 88 4.937 2.821a221.462 221.462 0 0 0 109.875 29.179 13.189 13.189 0 0 0 13.188-13.188 13.188 13.188 0 0 0 -10.6-12.932l-29.4-5.88z" fill="#283f61"/><path d="m231.62 48a19.8 19.8 0 0 1 -1.06 3.6l-14.56 36.4h-4a20 20 0 0 1 -20-20 20 20 0 0 1 20-20z" fill="#ffb531"/><path d="m215.172 381.242a14.591 14.591 0 0 0 2.645 19.172l102.183 87.586h24v-24l-107.572-86.058a14.591 14.591 0 0 0 -21.256 3.3z" fill="#348fd9"/><path d="m232 424 40-16 32 24v56h-72z" fill="#fec9a3"/><path d="m443.48 488h-139.08a16.138 16.138 0 0 1 -16.236-18.263l28.116-192a16.276 16.276 0 0 1 16.24-13.737h139.08a16.138 16.138 0 0 1 16.236 18.263l-28.116 192a16.276 16.276 0 0 1 -16.24 13.737z" fill="#d75246"/><path d="m474 352h-25.811a16 16 0 0 0 -15.689 12.862l-10.078 50.392a14 14 0 0 0 13.728 16.746h25.806a16 16 0 0 0 15.689-12.862l10.079-50.392a14 14 0 0 0 -13.724-16.746z" fill="#fec9a3"/><path d="m427.086 248 2.029-8c2.242-8.837-3.21-16-12.176-16-8.966 0-18.052 7.163-20.293 16l-2.03 8h-16.235c-8.966 0-18.051 7.163-20.293 16l-6.088 24h97.408l6.088-24c2.242-8.837-3.209-16-12.176-16z" fill="#348fd9"/><path d="m200 240-33.7 61.79-14.3 26.21-22.54-24.79-57.46-63.21z" fill="#d6d6d4"/><path d="m160 264 6.3 37.79-14.3 26.21-22.54-24.79 6.54-39.21-16-24h48z" fill="#283f61"/><path d="m243.62 247.98-131.62 240.02h-48l136-248h12.67a64.025 64.025 0 0 1 30.95 7.98z" fill="#e0e0de"/><path d="m192 416h40v72h-40z" fill="#e0e0de"/><path d="m88 416v-96h-64v128a40 40 0 0 0 40 40h128v-72z" fill="#34507b"/><path d="m160 448v16h-16v-16zm-48 0v16h16v-16zm-95.023 9.661a47.989 47.989 0 0 1 -.977-9.661v-144h16v144a32.036 32.036 0 0 0 32 32h120v-56h-96a8 8 0 0 1 -8-8v-96h16v88h2.744l43.335-79.02-18.538-20.388c-.01-.011-.018-.024-.029-.035l-54.912-60.402a40.047 40.047 0 0 0 -36.6 39.845h-16a56.078 56.078 0 0 1 48-55.419v-143.04l-13.988-34.97a28.882 28.882 0 0 1 6.216-30.331 27.983 27.983 0 0 1 19.892-8.24h135.76a28.125 28.125 0 0 1 26.1 38.581s-10.98 27.46-10.98 27.46l19.968 3.994a21.188 21.188 0 0 1 -4.156 41.965q-5.154 0-10.291-.238l14.907 37.267a8 8 0 0 1 -7.428 10.971h-24v40a31.793 31.793 0 0 1 -4.305 16h.975a72 72 0 0 1 60.93 33.632l22.044 35.014-13.544 8.524-22.041-35.008a56.335 56.335 0 0 0 -13.574-14.762l-81.493 148.6h49.391l-1.771-1.517a22.568 22.568 0 0 1 11.388-39.477v-47.006h16v21.75l34.431 56.35 14.454 11.563 19.479-133.078a24.414 24.414 0 0 1 24.156-20.585h20.186c4.982-9.327 15.225-16 25.676-16h10.011l.5-1.967c3.131-12.355 15.452-22.033 28.045-22.033a19.981 19.981 0 0 1 20.346 24h6.036a20.644 20.644 0 0 1 16.534 7.68 19.6 19.6 0 0 1 3.739 8.32h8.007a24.529 24.529 0 0 1 18.587 8.452 23.743 23.743 0 0 1 5.559 18.965l-9.426 64.359a22 22 0 0 1 9.248 22.538l-10.079 50.393a24.064 24.064 0 0 1 -23.534 19.293h-25.805a22 22 0 0 1 -21.573-26.314l10.078-50.393a24.066 24.066 0 0 1 23.534-19.293h22.511l9.212-62.9a7.645 7.645 0 0 0 -1.832-6.185 8.536 8.536 0 0 0 -6.48-2.915h-9.88l-4.557 17.967a8 8 0 0 1 -7.755 6.033h-97.408a8 8 0 0 1 -7.755-9.967l3.56-14.033h-15.285a8.324 8.324 0 0 0 -8.325 6.9l-28.109 192a7.658 7.658 0 0 0 1.772 6.121 8.508 8.508 0 0 0 6.322 2.976l.214.008h139.086a8.324 8.324 0 0 0 8.325-6.9l2.672-18.255 15.832 2.318-2.673 18.259a24.414 24.414 0 0 1 -24.156 20.573h-379.48a48.082 48.082 0 0 1 -47.023-38.339zm461.659-95.461a5.919 5.919 0 0 0 -4.636-2.2h-25.811a8.022 8.022 0 0 0 -7.844 6.432l-10.078 50.391a6 6 0 0 0 5.883 7.177h25.805a8.021 8.021 0 0 0 7.845-6.431l10.079-50.392a5.919 5.919 0 0 0 -1.243-4.977zm-116.354-82.2h80.9l4.556-17.967a5.236 5.236 0 0 0 -.516-4.528 4.793 4.793 0 0 0 -3.905-1.5h-16.231a8 8 0 0 1 -7.755-9.967l2.029-8a5.246 5.246 0 0 0 -.516-4.529 4.8 4.8 0 0 0 -3.906-1.5c-5.333 0-11.191 4.657-12.538 9.967l-2.029 8a8 8 0 0 1 -7.755 6.024h-16.234c-5.333 0-11.193 4.657-12.539 9.967zm-147.074-184h-53.463a213.842 213.842 0 0 0 81.067 16 5.188 5.188 0 0 0 1.018-10.275zm-4.593-16.08 6.426-16.063 3.143-7.857h-8.184a12 12 0 0 0 -1.385 23.92zm-133.199.08h109.291a27.786 27.786 0 0 1 -2.417-8h-88.29v-16h90.707a28.034 28.034 0 0 1 25.293-16h11.263a12.128 12.128 0 0 0 -11.383-8h-135.76a12.117 12.117 0 0 0 -11.25 16.636zm6.872 45.84c3.512-14.011 16.042-21.84 29.945-21.84l2.668-8h-36.901v68.686l11.654-11.654a29.09 29.09 0 0 1 -7.366-27.192zm-4.288 106.16h104a16.019 16.019 0 0 0 16-16v-16h-24v-16h24v-16a8 8 0 0 1 8-8h20.184l-13.5-33.744a230.32 230.32 0 0 1 -23.857-4.237 16 16 0 1 1 -24.116-7.019 229.313 229.313 0 0 1 -34.2-15.248l-4.926 14.78a8 8 0 0 1 -7.585 5.468h-7.73a12.823 12.823 0 0 0 -12.459 9.722 13.3 13.3 0 0 0 6.716 14.6l1.024.507a8 8 0 0 1 2.106 12.826l-29.657 29.659zm104 16h-10.234l-5.548 16.645 2.131 12.785 16.14-29.43zm-56.411 17.805-11.87-17.805h-25.635l34.2 37.62zm22.626 48.339 7.695-14.032-5.8-34.8a8.014 8.014 0 0 1 .3-3.845l4.49-13.467h-21.952l7.708 11.562a8 8 0 0 1 1.235 5.754l-5.9 35.381zm-3.472 93.856 85.741-156.351a56.146 56.146 0 0 0 -19.814-3.649h-7.921l-87.757 160zm124.057 9.1-30.8 12.316v50.584h41.408a23.673 23.673 0 0 1 -1.154-11.417l5.856-39.994zm-47.779-22.769 19.606 16.8 14.992-6-26.187-20.949a6.7 6.7 0 0 0 -2.007-1.1 6.592 6.592 0 0 0 -6.4 11.248zm-23.021 85.669h24v-56h-24z"/></g></svg>