<svg id="Filled" height="512" viewBox="0 0 512 512" width="512" xmlns="http://www.w3.org/2000/svg"><path d="m136 400h-112l16-80h80z" fill="#ffd33a"/><path d="m120 320h112l32 80h-128z" fill="#ffb632"/><path d="m248 400h-112l16-80h80z" fill="#ffd33a"/><path d="m232 320h112l32 80h-128z" fill="#ffb632"/><path d="m360 400h-112l16-80h80z" fill="#ffd33a"/><path d="m344 320h112l32 80h-128z" fill="#ffb632"/><path d="m192 320h-112l16-80h80z" fill="#ffd33a"/><path d="m176 240h112l32 80h-128z" fill="#f7b030"/><path d="m304 320h-112l16-80h80z" fill="#ffd33a"/><path d="m288 240h112l32 80h-128z" fill="#f7b030"/><path d="m256 240h-112l16-80h80z" fill="#ffd33a"/><path d="m240 160h112l32 80h-128z" fill="#ffb632"/><g fill="#ffd33a"><path d="m112 112a53.665 53.665 0 0 1 -24 24 53.665 53.665 0 0 1 24 24 53.665 53.665 0 0 1 24-24 53.665 53.665 0 0 1 -24-24z"/><path d="m440 152a53.665 53.665 0 0 1 -24 24 53.665 53.665 0 0 1 24 24 53.665 53.665 0 0 1 24-24 53.665 53.665 0 0 1 -24-24z"/><path d="m72 176a89.441 89.441 0 0 1 -40 40 89.441 89.441 0 0 1 40 40 89.441 89.441 0 0 1 40-40 89.441 89.441 0 0 1 -40-40z"/><path d="m392 208a71.553 71.553 0 0 1 -32 32 71.553 71.553 0 0 1 32 32 71.553 71.553 0 0 1 32-32 71.553 71.553 0 0 1 -32-32z"/></g><path d="m80 136a8 8 0 0 0 4.422 7.155 45.963 45.963 0 0 1 20.423 20.423 8 8 0 0 0 14.31 0 45.963 45.963 0 0 1 20.423-20.423 8 8 0 0 0 0-14.31 45.963 45.963 0 0 1 -20.423-20.423 8 8 0 0 0 -14.31 0 45.963 45.963 0 0 1 -20.423 20.423 8 8 0 0 0 -4.422 7.155zm32-9.313a62.459 62.459 0 0 0 9.314 9.313 62.459 62.459 0 0 0 -9.314 9.313 62.459 62.459 0 0 0 -9.314-9.313 62.459 62.459 0 0 0 9.314-9.313z"/><path d="m408 176a8 8 0 0 0 4.422 7.155 45.963 45.963 0 0 1 20.423 20.423 8 8 0 0 0 14.31 0 45.963 45.963 0 0 1 20.423-20.423 8 8 0 0 0 0-14.31 45.963 45.963 0 0 1 -20.423-20.423 8 8 0 0 0 -14.31 0 45.963 45.963 0 0 1 -20.423 20.423 8 8 0 0 0 -4.422 7.155zm32-9.313a62.459 62.459 0 0 0 9.314 9.313 62.459 62.459 0 0 0 -9.314 9.313 62.459 62.459 0 0 0 -9.314-9.313 62.459 62.459 0 0 0 9.314-9.313z"/><path d="m272 88v24a8 8 0 0 0 16 0v-24a8 8 0 0 0 -16 0z"/><path d="m213.657 90.343a8 8 0 0 0 -11.314 11.314l16 16a8 8 0 1 0 11.314-11.314z"/><path d="m330.343 117.657a8 8 0 0 0 11.314 0l16-16a8 8 0 0 0 -11.314-11.314l-16 16a8 8 0 0 0 0 11.314z"/><path d="m495.428 397.029-32-80a8 8 0 0 0 -7.428-5.029h-18.584l-22.564-56.41a63.358 63.358 0 0 1 12.726-8.435 8 8 0 0 0 0-14.31 63.954 63.954 0 0 1 -28.423-28.423 8 8 0 0 0 -14.31 0 62.682 62.682 0 0 1 -3.821 6.6l-21.6-53.992a8 8 0 0 0 -7.424-5.03h-192a8 8 0 0 0 -7.845 6.431l-14.714 73.569h-35.772a80.961 80.961 0 0 1 13.909-8.845 8 8 0 0 0 0-14.31 81.956 81.956 0 0 1 -36.423-36.423 8 8 0 0 0 -14.31 0 81.956 81.956 0 0 1 -36.423 36.423 8 8 0 0 0 0 14.31 81.956 81.956 0 0 1 36.423 36.423 8 8 0 0 0 14.31 0 80.687 80.687 0 0 1 7.088-11.588l-12.802 64.01h-33.441a8 8 0 0 0 -7.845 6.431l-16 80a8 8 0 0 0 7.845 9.569h464a8 8 0 0 0 7.428-10.971zm-103.428-173.803a80.486 80.486 0 0 0 16.774 16.774 80.486 80.486 0 0 0 -16.774 16.774 80.486 80.486 0 0 0 -16.774-16.774 80.486 80.486 0 0 0 16.774-16.774zm-7.155 52.352a8 8 0 0 0 14.31 0 62.783 62.783 0 0 1 3.821-6.6l17.208 43.022h-109.625l-12.8-64h60.269a63.977 63.977 0 0 1 26.817 27.578zm-38.262-107.578 22.565 56.41a63.459 63.459 0 0 1 -11.12 7.59h-95.469l-12.8-64zm-132.024 80h66.882l12.8 64h-92.483zm-48-80h66.882l12.8 64h-92.482zm31.682 80-6.241 31.207-6.241-31.207zm-95.682 0h66.882l12.8 64h-92.483zm-30.559-7.606a98.519 98.519 0 0 0 -24.394-24.394 98.519 98.519 0 0 0 24.394-24.394 98.519 98.519 0 0 0 24.394 24.394 98.519 98.519 0 0 0 -24.394 24.394zm-38.242 151.606 12.8-64h66.882l12.8 64zm102.242-32.793-6.241-31.207h12.482zm9.758 32.793 12.8-64h66.882l12.8 64zm102.242-32.793-6.241-31.207h12.482zm9.758 32.793 12.8-64h66.882l12.8 64zm108.8 0-12.8-64h96.825l25.6 64z"/></svg>